<svg id="screenshot" viewBox="0 0 256 256" width="256" height="256" version="1.1" xmlns="http://www.w3.org/2000/svg" xmlns:xlink="http://www.w3.org/1999/xlink" style="-webkit-print-color-adjust: exact;"><g id="shape-fe9d4320-9b9e-11ec-b8a7-c79d6b89892f" clip-path="url(#frame-clip-fe9d4320-9b9e-11ec-b8a7-c79d6b89892f-e4b5ea90-9ba1-11ec-b886-d14448580835)"><defs><clipPath id="frame-clip-fe9d4320-9b9e-11ec-b8a7-c79d6b89892f-e4b5ea90-9ba1-11ec-b886-d14448580835" class="frame-clip"><rect x="0" y="0" width="256" height="256"/></clipPath></defs><g id="shape-0f97ba70-9b9f-11ec-b8a7-c79d6b89892f"><defs><linearGradient id="fill-color-gradient_e4b686d0-9ba1-11ec-b886-d14448580835" x1="0.5" y1="-0.18" x2="0.5" y2="0.52"><stop offset="0" stop-color="#373838" stop-opacity="1"/><stop offset="1" stop-color="#000000" stop-opacity="1"/></linearGradient><clipPath id="inner-stroke-e4b686d0-9ba1-11ec-b886-d14448580835"><use xlink:href="#stroke-shape-e4b686d0-9ba1-11ec-b886-d14448580835"/></clipPath></defs><g class="inner-stroke-shape" transform="matrix(1,0,0,1,0,0)"><defs><rect rx="25" ry="25" x="0" y="0" width="256" height="256" id="stroke-shape-e4b686d0-9ba1-11ec-b886-d14448580835" style="fill: url(&quot;#fill-color-gradient_e4b686d0-9ba1-11ec-b886-d14448580835&quot;); stroke-width: 8; stroke: rgb(0, 0, 0); stroke-opacity: 0.53;"/></defs><use xlink:href="#stroke-shape-e4b686d0-9ba1-11ec-b886-d14448580835" clip-path="url('#inner-stroke-e4b686d0-9ba1-11ec-b886-d14448580835')"/></g></g><g id="shape-9eda0150-9ba1-11ec-b8a7-c79d6b89892f" width="139.3" height="100.5"><g id="shape-9edb12c0-9ba1-11ec-b8a7-c79d6b89892f" style="fill: rgb(0, 0, 0); stroke-width: 0.25; stroke: rgb(0, 0, 0);"><g id="shape-9eedd770-9ba1-11ec-b8a7-c79d6b89892f"><path fill-rule="evenodd" font-size="9pt" stroke-linecap="round" d="M48.09517181798037,147.70667705840845L56.839726273426095,142.25717210791322C55.062417210700914,141.68298855910882,53.38421228502875,140.8383291263201,51.8642015209507,139.75293448415096C50.0344831066468,138.4288855497947,48.52911313274035,136.70685323076566,47.46150845164357,134.71657804850747C46.68583166915869,133.2476650266202,46.089706227169245,131.6907606781267,45.6859836991689,130.0794295336559C44.926432544053114,127.17218200890329,44.54665696649545,123.71195758646127,44.54665696649545,119.69875626632916C44.54295504728998,118.14118152665458,44.60849829860217,116.58421216322313,44.74309261005965,115.03245923662644C44.88587808860757,113.43224801550423,45.10681538233712,111.94187177788024,45.40590449124784,110.5613305237548C45.55668433025994,109.86174068720129,45.73509459193065,109.16839275085215,45.94071637243587,108.48291468217076C46.345651812929646,107.11057772866332,46.90071737129256,105.78709063161762,47.595845085307246,104.53645923662623C48.32226663522715,103.2318351792311,49.23791839701107,102.0420003805691,50.312993600158734,101.00568695939842C52.29847214801339,99.10469686038857,54.85424772557144,97.7317595666592,57.98032033283198,96.88687507821032C59.42009213102028,96.50477802592195,60.88371399427115,96.21899707200396,62.36146884768323,96.03142953365591C64.45509261005964,95.75684207490997,66.75444574537323,95.61954834553705,69.25952825362447,95.61954834553705C70.33708211049088,95.61876173391806,71.41440250204005,95.65130534715831,72.48994409520765,95.71713250395283C72.63826627824437,95.72615000646101,72.78654515174594,95.73586628592136,72.93477577837575,95.74628101880421C73.94109880111273,95.81730537103704,74.9446013980264,95.92382712942879,75.94340944174292,96.06564735543816C76.0812334232537,96.08518549624603,76.2189515773307,96.10546301586476,76.3565579565934,96.12647903860613L77.87735003580201,90.80370676137863C78.08491981162206,90.08770317840072,78.31270732868461,89.37771611223184,78.5604391447132,88.67459785048754C78.80123122392115,87.99615560626319,79.04793749454802,87.37094108481108,79.30055795659428,86.79895428613099C79.4498277710727,86.46054825214799,79.6091593592887,86.12667038824691,79.77834013481197,85.7977661673192C80.1067105716752,85.15394025234764,80.49631026614907,84.5432278772414,80.94174607540617,83.97408299900258C81.3289262661533,83.48087946933526,81.76734032168815,83.03014563898421,82.24962726352533,82.62944933563608C82.90575925167241,82.0936703841677,83.64280384310905,81.66547442593878,84.43323122392121,81.36085527623015C84.89808035679789,81.17930350893948,85.3754091172018,81.03148830274529,85.86150845164411,80.91855824652725C86.48729925504267,80.77390477445647,87.12068197572398,80.66432152485288,87.75869657045587,80.5903206227648C88.38053155395392,80.51597078778116,89.0433434351421,80.46485527623031,89.74713221401998,80.43697408811124C90.18372715805845,80.4198691881495,90.62061822240912,80.41141868400359,91.05754805560446,80.41162755345783L99.29517181798064,80.41162755345783L99.29517181798064,90.04331072177479L90.80408270906992,90.04331072177479C90.34835098352778,90.04141425637192,89.89293685267103,90.06765559104952,89.44043914471331,90.12188497920044C88.47389128992745,90.24185857656016,87.70758105890445,90.50123811451408,87.14150845164386,90.90002359306186C87.07171046866142,90.94949469390201,87.0040580179184,91.00192534322798,86.93873617441614,91.0571721079134C86.66266995329988,91.29506002077494,86.41246716468231,91.56140492478733,86.19228072887154,91.8517859692995C85.73688798959756,92.43982557325978,85.28825432623125,93.21120511121364,84.84637973877261,94.16592458316086C84.75962618997437,94.35354830470806,84.67555164194664,94.54239917389577,84.5941817189705,94.73241963266594L83.20012231303008,97.90073646434882C85.03204259188806,98.65218207430541,86.71230835289407,99.72999118754979,88.15917181798068,101.08172656335876C89.50284203621868,102.36224567214265,90.59355535830127,103.88417123783915,91.3743797387724,105.5680631970223C92.03041222279853,106.9954242674861,92.53503037514747,108.48761582405348,92.87996389718865,110.02018200890348C93.23735003580214,111.54942293299587,93.49546224702317,113.22271666236884,93.65430053085174,115.04006319702228C93.78565573803053,116.58944859226392,93.84950495056728,118.14381750143878,93.8456668674853,119.69875626632916C93.85011964814294,121.27909975445255,93.78500050541243,122.85887324302462,93.65049855065399,124.43348893959421C93.513627263525,125.97202359306186,93.30620812161078,127.40114570527317,93.02824112491089,128.72085527623028C92.8695683272258,129.4813972193275,92.67716721305578,130.23451015193564,92.45160746154488,130.9779641871213C92.02340207231373,132.41136866291993,91.42832922589287,133.78952164533928,90.67861736253508,135.0841028009827C89.96960560643993,136.30176759500603,89.09480907743318,137.41498989666752,88.07933023382202,138.39182557325978C86.09385168596737,140.29281567226974,83.55919822062106,141.66575296599922,80.47536983778264,142.51063745444787C79.07844928228496,142.88633742331524,77.65799393362659,143.16831157002355,76.22348864966398,143.35467705840824C74.777891289928,143.5490004907516,73.22921802260089,143.67615560626314,71.57746884768358,143.73614240494305C70.80514284888113,143.7642604129295,70.03236589090466,143.77820335421598,69.25952825362356,143.77796418712114L67.23180548134678,143.77796418712114C66.5558978905874,143.77796418712114,65.87999029982848,143.7357199626988,65.20408270906955,143.651231513854L54.4318054813466,150.24133052375498C54.21210471054792,150.40457230974778,54.00220988174442,150.58061313390556,53.80321142194089,150.76853844454706C53.20841274207305,151.33630082078446,52.911013402138906,151.8787166623688,52.911013402138906,152.39578596929937C52.90693579634308,152.61569759165627,52.94212749189683,152.83457277132288,53.01493419421831,153.04212260296265C53.21686158695775,153.58453844454698,53.71323122392096,153.8747562663292,54.504043105109304,153.91277606830943C54.56441382811499,153.91547489957566,54.62484003428108,153.91674258222247,54.685270827881595,153.9165780485073L82.94665696649508,153.9165780485073C84.45089348839201,153.9055297015982,85.95261614508081,154.04135537998707,87.4304589466933,154.32212260296274C89.1362807288715,154.6600763983422,90.64355465626431,155.20882887359005,91.95228072887176,155.9683800287055C93.01930946307766,156.58325307160942,93.97970508173194,157.3668913861177,94.79616191699006,158.28885527623015C97.14747544834336,160.94855164586727,98.42620812161067,165.2435219428968,98.632359936792,171.17376616731917C98.65220971844474,171.75779130354738,98.6619273518254,172.34211682379362,98.66150845164384,172.9264790386061C98.66150845164384,178.75364735543792,97.72748864966343,183.12592458316078,95.85944904570351,186.04331072177456C95.5449916338498,186.53716786154132,95.1892926763312,187.00351929571423,94.79616191699006,187.43737012771533C93.36143714358695,188.98208012742464,91.54665612846657,190.12347382149972,89.53295399619856,190.74762755345773C87.6395678575841,191.37115230593315,85.44413551434991,191.6829146821707,82.94665696649508,191.6829146821707L54.938736174416135,191.6829146821707C53.53464426658684,191.69155293363428,52.13204409106265,191.589853827252,50.743884689267816,191.378756266329C47.469112412039976,190.85830742144458,44.980927593558135,189.67124471517388,43.27933023382229,187.81756814751725C42.023479006400976,186.42189584091352,41.09746571062669,184.76174197622515,40.569785679366305,182.9599047811805C40.18536323712215,181.71370016071842,39.93316521732004,180.34245263596608,39.81319161996089,178.84616220692328C39.75746771435752,178.1416442915238,39.72998693899399,177.43517697409698,39.730815382336914,176.72845923662612C39.72386967365628,175.2773771258918,39.864849074755966,173.82936580736646,40.15156785758427,172.4068750782102C40.362998190803864,171.37188323005387,40.66755088014179,170.35812149256333,41.06150845164393,169.37796418712128C41.48210685380809,168.3609450979419,42.04121583028882,167.40692009383235,42.72297379817837,166.54295428613102C43.33044574537371,165.75974636533908,44.055779078706564,164.98794438514108,44.898973798178304,164.227548345537C45.35794331800844,163.81448832200783,45.832257501298955,163.41880376268512,46.32091439223768,163.04133052375494C45.64973797625089,162.66593728635644,45.05619396791053,162.16615602715945,44.572003501149084,161.5686968603885C44.251785663613646,161.16776612977583,43.98745948911119,160.7252329537538,43.78626092689137,160.25321171187363C43.46473505973427,159.4914939396042,43.24651076934515,158.69020162333356,43.13738963976266,157.87063745444812C43.06159413791056,157.31626163273165,43.02432985293626,156.7572973581157,43.0258648872873,156.19776616731917C43.0258648872873,154.59248563926633,43.38494079487782,153.09281567226992,44.10309261005932,151.69875626632916C44.42183545753642,151.09397690351545,44.818043844289605,150.53332073473382,45.28170647144589,150.03095428613108C46.00408270906928,149.23422821352403,46.9419044912479,148.45946913761622,48.09517181798037,147.70667705840845ZZM168.99814211501007,64.31657804850727L180.1506173625353,64.31657804850727L180.1506173625353,107.27895428613112C181.78842625447123,104.18898818621301,184.1836750649577,101.56524668016993,187.11204310510948,99.65344933563608C187.2617625986336,99.5533566094017,187.4125836894782,99.4549215557131,187.56447874867308,99.35816220692357C190.8172840292018,97.28819521022342,194.85160746154497,96.25321171187363,199.66744904570305,96.25321171187363C202.28659095989497,96.25321171187363,204.6311454153406,96.65453184388684,206.70111241203995,97.45717210791338C208.53522097869018,98.17577243049743,210.15507290511368,99.35150659201452,211.406696570456,100.87261765246774C211.5986691104108,101.10117888687057,211.7833686066756,101.33575147365991,211.96051835263415,101.57598398910147C212.6245165802684,102.48775138870155,213.18755215513738,103.46892055275646,213.63972627342582,104.50224141484398C214.07399690048896,105.47554834553705,214.45419492029077,106.546439434646,214.78032033283216,107.71491468217084C214.932790636346,108.26273632592995,215.07013648968768,108.81465535504901,215.19220152095068,109.3700433950421C215.91035333613263,112.62284867557014,216.26942924372315,116.74166055675823,216.26942924372315,121.7264790386065L216.26942924372315,163.92845923662628L205.1169539961984,163.92845923662628L205.1169539961984,122.36014240494319C205.1180957676106,121.46510865188509,205.09950379109296,120.57015850953064,205.06119161996048,119.67594438513026C205.02063716451494,118.75248563926641,204.95727082788108,117.89661765246774,204.8710926100598,117.10834042474517C204.79490747666796,116.3832191798889,204.68665627361315,115.6618263970289,204.54665696649545,114.9462810188046C204.42108075893202,114.30581384911613,204.25687322625163,113.6735302052374,204.05493419421782,113.05289488019059C203.85300680147884,112.43950874157656,203.620241124911,111.8839971904215,203.35663716451518,111.38636022672517C203.184663779497,111.05972484963843,202.98941391365952,110.7458850435969,202.77239954075276,110.44727111781435C202.34214764205035,109.84792140020102,201.81538317133118,109.3241547760631,201.21358765956484,108.89733052375493C200.77534301461446,108.59110234907996,200.29793583826813,108.34515240197993,199.79418171897078,108.16608299900247C199.17726477575252,107.94953170108397,198.5411643376351,107.79209790352468,197.89445894669325,107.69590478118062C197.2819176925682,107.60127771847431,196.62839954075298,107.54762755345791,195.93390449124763,107.5349542861311C195.8266139820921,107.53314015555327,195.71930927429366,107.53229523659422,195.61200350114905,107.53241963266589C194.18803548005008,107.52238874161458,192.76740968273316,107.67159270776017,191.37659756055473,107.977251315834C189.43761694191517,108.39442397032497,187.61588201852555,109.2381885534254,186.0436866694654,110.44727111781435C184.30360172505516,111.82073638266058,182.8295074656171,113.50099767139034,181.69422132293084,115.40505329603218C181.10751283081163,116.37537596544644,180.59163672385648,117.38679808647237,180.1506173625353,118.43142953365589L180.1506173625353,163.92845923662628L168.99814211501007,163.92845923662628L168.99814211501007,64.31657804850727ZZM123.88131043184194,125.65519190989357L142.63774607540608,121.21954834553708L142.63774607540608,119.06509289999246C142.64399247584697,117.91843594572424,142.57243542218566,116.77267625811226,142.4235678575842,115.63570676137931C142.01126422722155,112.62707309801237,141.00542924372303,110.43290808151062,139.40606290708956,109.05321171187381C138.39875675780877,108.2035778597101,137.23690692792934,107.55638447299191,135.98428072887145,107.1471523059331C134.96535003580266,106.79905989669214,133.83193749454813,106.55404339504184,132.58404310510878,106.41210280098267C131.6721174806289,106.31132562591642,130.75521883599504,106.26224383414092,129.83774607540636,106.26509289999262C128.91526763002776,106.2620322689711,127.9930797626912,106.29839547694507,127.0737064714458,106.37408299900255C125.27325762656164,106.52954174487706,123.80146884768328,106.84890808151067,122.65834013481208,107.33218200890337C122.42688746876638,107.42949835072147,122.20058307741465,107.53863205720518,121.98032033283198,107.65915230593305C121.40951833374174,107.97152489186976,120.85105202767363,108.30592825909116,120.30618171897095,108.6616077514775C119.79587148794735,108.99618200890347,119.33456455725445,109.3307562663291,118.92226092689134,109.66533052375496C118.61889474372356,109.91095511085382,118.32829691254346,110.17194326491278,118.05160746154525,110.44727111781435L118.05160746154525,118.43142953365589L108.16645894669318,118.43142953365589L108.16645894669318,106.01162755345786C110.24863068301829,102.5156670697105,113.40606733971936,99.787254120939,117.16701340213876,98.23404339504214C117.22941702675371,98.20715357822314,117.29193908847355,98.18053945735562,117.35457775857412,98.15420181088382C119.90769596509563,97.09525355568621,122.58779602469303,96.37314743567072,125.32733023382252,96.0060829990025C127.24193264127007,95.74323457882667,129.17251964300158,95.61407708035586,131.1050728080795,95.61954834553705C133.2869590076034,95.6056218336098,135.4653346925029,95.79655854148007,137.61152825362387,96.18984537524011C140.07690119091785,96.65875626632908,142.28331703250205,97.41661765246783,144.23077577837648,98.46342953365604C145.30662271499978,99.03970790134406,146.32252145635402,99.72150204201068,147.2634886496635,100.49875626632934C149.05544296351627,102.02323258350168,150.4399684122045,103.96958182231492,151.29232033283188,106.16243943464588C151.9530200027989,107.77025461616427,152.4379836991684,109.59436022672526,152.74721142194085,111.63475626632908C153.03129217856485,113.59159156969474,153.16812522962482,115.56698635945668,153.1565579565945,117.54430082078454L153.1565579565945,150.36806319702225C153.1558652245376,150.67968312380742,153.1664331757188,150.99122632463286,153.1882411249112,151.30208299900198C153.2651256133604,152.36494768547107,153.48690779157778,153.046347025405,153.8535876595647,153.34628101880435C154.24814871567014,153.6690268933918,154.9012444252412,153.85490148085069,155.81287478827744,153.9039047811806C155.98339824142658,153.91268537664064,156.1541257447352,153.9169113049402,156.3248747882776,153.9165780485073L157.97239954075303,153.9165780485073L157.97239954075303,163.92845923662628L152.14269657045543,163.92845923662628C151.32729757269453,163.932719543448,150.5125785618684,163.8806351160407,149.70435993679212,163.7725780485074C148.88144244504292,163.65767375807832,148.1375216529641,163.4794031310156,147.47259756055473,163.23776616731925C146.7565689590897,162.98769408893838,146.08651468767266,162.6216261004006,145.4892312239208,162.1542018108836C144.7778953363877,161.57098626481172,144.204082981355,160.8379258353806,143.80875597639624,160.00735032573505C143.2950662074195,158.97067705840834,142.94697379817853,157.70081567226987,142.7644787486738,156.19776616731917L142.51101340213881,156.45123151385383C139.79470977177562,158.65046583728622,137.2638582866275,160.44119851055348,134.91845894669314,161.82342953365594C134.22993405070474,162.23027326751355,133.5287540915151,162.6153093994135,132.8159638971888,162.9779641871213C130.92052934503226,163.92514698054197,128.8877655226038,164.5679502679625,126.79235993679231,164.88275626632912C125.40988096376486,165.09606744709424,124.01281368087439,165.2007309651027,122.61398369916878,165.19578596929955C121.00859282632246,165.2076003485074,119.40600049169325,165.05986468428182,117.82982528332695,164.75475626632897C115.93981868266701,164.37371336203876,114.27835333613211,163.74596418712133,112.84542924372317,162.8715087415767C111.67019451655369,162.15824804771728,110.62387393693598,161.25160826619754,109.75061736253474,160.1898453752401C107.34776587738634,157.26907969867239,105.99637313811263,153.39401699240193,105.69643914471317,148.56465725642818C105.6529265766826,147.85706023247837,105.63137165904482,147.14828382309383,105.63180548134687,146.43935032573495C105.62136109538778,144.714493295009,105.757881128603,142.99188181999716,106.03988468926764,141.29020181088356C106.36178567936668,139.4230070914116,106.87420812161099,137.75140313101565,107.57715201600013,136.2753899296954C108.24393336703952,134.85122931298326,109.15060533231826,133.55230919251278,110.25754805560427,132.43538992969536C111.70443596301448,131.01404868919508,113.34961647835962,129.8098311921043,115.14182528332685,128.86026121682426C117.5936800688055,127.53125791649427,120.5068417849775,126.46290148085063,123.88131043184194,125.65519190989357ZZM80.91893419421831,163.92845923662628L55.57239954075294,163.92845923662628C52.868769177716786,165.8716935600586,51.073389639762354,167.6037067613786,50.186260926891464,169.1244988405865C49.55100988531649,170.22813668130323,49.13891907690186,171.44589300961684,48.97342924372333,172.70849884058646C48.893768833640024,173.28464494080026,48.854386163302934,173.8656451956574,48.85556785758445,174.44727111781435C48.85556785758445,178.67338332903535,50.560122313030206,181.22197738844125,53.96923122392127,182.09305329603205C54.95035550782404,182.33000594500209,55.95720106973067,182.4436751902573,56.966458946693365,182.4314295336559L80.91893419421831,182.4314295336559C81.70887972417859,182.43700121392294,82.49749317596888,182.36569493841137,83.27362726352521,182.2185186425669C84.18272297309568,182.03940313101555,84.98916521732053,181.746650655768,85.69295399619796,181.34026121682405C86.14540095840675,181.0808773918966,86.56386709098297,180.76628281206547,86.93873617441614,180.40370676137877C88.33279558035656,179.05189157986035,89.02982528332723,176.68621501220377,89.02982528332723,173.30667705840824C89.02982528332723,169.842650655768,88.33279558035656,167.41360775147768,86.93873617441614,166.01954834553692C85.67816851765065,164.7589806887712,83.91658435923455,164.0682876194645,81.65398369916875,163.94746913761617C81.40917939368,163.9346085107677,81.16407600574348,163.9282696300453,80.91893419421831,163.92845923662628ZZM64.10657775857453,105.02564735543808C63.66627537156319,105.10535695956901,63.22915570615805,105.20174311402957,62.79616191699006,105.31459785048764C61.02190449124828,105.77928431913438,59.56447874867354,106.58192458316091,58.42388468926765,107.72251864256668C57.28329062986177,108.86311270197268,56.45952825362383,110.40502689339189,55.952597560555205,112.3482612168242C55.44566686748567,114.2914955402565,55.192201520950675,116.74166055675823,55.192201520950675,119.69875626632916C55.192201520950675,121.93178596929931,55.33667676847517,123.88769356005866,55.625627263525075,125.56647903860653C55.71411483111888,126.08598222519731,55.82319081103151,126.60176786664545,55.952597560555205,127.11261765246763C56.412214722271074,128.91306649735236,57.13247874867375,130.36584537524016,58.11338963976277,131.47095428613102C58.21356226287435,131.58428704203652,58.317107040366864,131.69459392744727,58.42388468926765,131.80172656335878C59.287704356802806,132.65631741306413,60.31716385592745,133.32522888484584,61.448993600159156,133.76735032573515C61.88835773808205,133.94281179553138,62.3382976825128,134.09053431726795,62.79616191699006,134.20964735543805C63.569696304208264,134.4085610076969,64.3548380270031,134.55924049735484,65.14705300609921,134.6608156722698C65.92012231302988,134.76304669537217,66.74557445824439,134.8335945501576,67.62340944174275,134.87245923662613C68.16846830559552,134.89577268729863,68.71397126508873,134.90718134717974,69.25952825362356,134.90667705840826C71.20022792359123,134.90667705840826,72.91787808860727,134.770650655768,74.4124787486735,134.4985978504876C74.85278113568484,134.4188882463567,75.28990080109088,134.32250209189579,75.72289459025797,134.20964735543805C77.49715201600065,133.7449608867911,78.95457775857449,132.94232062276478,80.09517181798037,131.80172656335878C81.23576587738626,130.661132503953,82.0595282536242,129.09809620032263,82.56645894669373,127.11261765246786C83.07338963976235,125.12713910461287,83.32685498629735,122.6558519759003,83.32685498629735,119.69875626632916C83.32685498629735,117.57049223992658,83.19547544834359,115.70498728943153,82.93271637243606,114.102241414844C82.83778816131371,113.51223796826184,82.71557127998085,112.9269502043702,82.56645894669373,112.3482612168242C82.08318501930034,110.49542953365597,81.31180548134671,109.00716550725326,80.25232033283237,107.88346913761643C80.20072098747323,107.82905953531588,80.14833260283967,107.77540368976395,80.09517181798037,107.72251864256668C79.23135215044567,106.86792779286122,78.20189265132058,106.19901632107985,77.07006290708978,105.75689488019054C76.63069876916597,105.58143341039431,76.18075882473613,105.43371088865774,75.72289459025797,105.31459785048764C74.94936020303976,105.11568419822856,74.16421848024493,104.96500470857097,73.37200350114881,104.86342953365602C72.59893419421815,104.76119851055353,71.77390449124778,104.69065065576808,70.89691439223816,104.65178596929934C70.35143343019354,104.62845406635802,69.80550772611878,104.61704540226344,69.25952825362447,104.61756814751743C67.31882858365725,104.61756814751743,65.60117841864076,104.75359455015746,64.10657775857453,105.02564735543808ZZM141.37041934273293,147.57994438514095L142.63774607540608,146.6928156722696L142.63774607540608,130.09083547424996L126.16249855065371,134.2730136920717C123.81540944174276,134.8745714478473,121.87513221402014,135.6801688075832,120.3416668674854,136.68980577127957C119.74878045176365,137.07676932165612,119.19413887542032,137.5193792406509,118.6852708278816,138.01162755345786C117.30388468926776,139.3583734280454,116.48730383118209,141.28386517722015,116.23552825362412,143.78810280098264C116.17776035975157,144.37435384028493,116.14942115689155,144.96313250267974,116.15061736253529,145.55222161286383C116.1444001313589,146.49580919804453,116.22457627096401,147.43798489150288,116.39014211501035,148.3669542861312C116.72387148794769,150.16402359306176,117.40442594339265,151.6337001607186,118.4318054813466,152.77598398910152C119.78953485428383,154.2841028009825,121.75304640543936,155.11927111781438,124.3223401348123,155.28148893959644C124.63963245780724,155.30119617028924,124.95746621253784,155.3109171494898,125.27536983778236,155.31063745444806C126.28923122392143,155.31063745444806,127.3030926100596,155.18390478118056,128.31695399619866,154.9304394346459C128.82223842145595,154.80260881265917,129.3212657926474,154.65120898309453,129.81239954075272,154.47673646434896C130.3117262734263,154.30100049075145,130.83175267606657,154.09527111781438,131.37247874867398,153.85954834553695C131.47369790515086,153.81577567426348,131.57466328702094,153.77141849812824,131.675369837782,153.7264790386065C132.2104772433172,153.48471884272521,132.7363624035529,153.22304447440888,133.25192429322806,152.94200379108156C134.06132363316192,152.50435362606527,134.9298648872873,151.98432722342477,135.85754805560418,151.38192458316075C137.4205843592349,150.36806319702225,139.258208121611,149.10073646434898,141.37041934273293,147.57994438514095ZZ" style="fill: rgb(255, 255, 255); fill-opacity: 1;"/></g></g></g></g></svg>